# AST/ASF file generated using VICON BodyLanguage
# -----------------------------------------------
:version 1.10
:name VICON
:units
  mass 1.0
  length 0.45
  angle deg
:documentation
   .ast/.asf automatically generated from VICON data using
   VICON BodyBuilder and BodyLanguage model FoxedUp or BRILLIANT.MOD
:root
   order TX TY TZ RX RY RZ
   axis XYZ
   position 0 0 0  
   orientation 0 0 0 
:bonedata
  begin
     id 1 
     name lhipjoint
     direction 0.682418 -0.694059 0.22932 
     length 2.25561 
     axis 0 0 0  XYZ
  end
  begin
     id 2 
     name lfemur
     direction 0.34202 -0.939693 0  
     length 6.96448  
     axis 0 0 20  XYZ
    dof rx ry rz
    limits (-160.0 20.0)
           (-70.0 70.0)
           (-60.0 70.0)
  end
  begin
     id 3 
     name ltibia
     direction 0.34202 -0.939693 0   
     length 6.88553   
     axis 0 0 20   XYZ
    dof rx
    limits (-10.0 170.0)
  end
  begin
     id 4 
     name lfoot
     direction 0.0723587 -0.198804 0.977364   
     length 1.88518   
     axis -90 7.62852e-016 20   XYZ
    dof rx rz
    limits (-45.0 90.0)
           (-70.0 20.0)
  end
  begin
     id 5 
     name ltoes
     direction 1.53558e-011 -4.21962e-011 1   
     length 0.952124   
     axis -90 7.62852e-016 20   XYZ
    dof rx
    limits (-90.0 20.0)
  end
  begin
     id 6 
     name rhipjoint
     direction -0.657603 -0.71533 0.236348   
     length 2.18854  
     axis 0 0 0  XYZ 
  end
  begin
     id 7 
     name rfemur
     direction -0.34202 -0.939693 0   
     length 6.86686   
     axis 0 0 -20   XYZ
    dof rx ry rz
    limits (-160.0 20.0)
           (-70.0 70.0)
           (-70.0 60.0)
  end
  begin
     id 8 
     name rtibia
     direction -0.34202 -0.939693 0   
     length 6.59503   
     axis 0 0 -20   XYZ
    dof rx
    limits (-10.0 170.0)
 end
 begin
     id 9 
     name rfoot
     direction -0.101977 -0.280179 0.954516   
     length 1.93723  
     axis -90 -7.62852e-016 -20   XYZ
    dof rx rz
    limits (-45.0 90.0)
           (-20.0 70.0)
  end
  begin
     id 10 
     name rtoes
     direction -1.53564e-011 -4.21897e-011 1   
     length 0.970315   
     axis -90 -7.62852e-016 -20   XYZ
    dof rx
    limits (-90.0 20.0)
  end
  begin
     id 11 
     name lowerback
     direction -0.0339559 0.999421 -0.00235966   
     length 1.88543   
     axis 0 0 0   XYZ
    dof rx ry rz
    limits (-20.0 45.0)
           (-30.0 30.0)
           (-30.0 30.0)
  end
  begin
     id 12 
     name upperback
     direction 0.00401003 0.999739 0.0224689   
     length 1.8856   
     axis 0 0 0   XYZ
    dof rx ry rz
    limits (-20.0 45.0)
           (-30.0 30.0)
           (-30.0 30.0)
  end
  begin
     id 13 
     name thorax
     direction 0.0198619 0.999546 0.0226536   
     length 1.88352   
     axis 0 0 0   XYZ
    dof rx ry rz
    limits (-20.0 45.0)
           (-30.0 30.0)
           (-30.0 30.0)
  end
  begin
     id 14 
     name lowerneck
     direction -0.0461848 0.998632 0.0245198   
     length 1.34895   
     axis 0 0 0   XYZ
    dof rx ry rz
    limits (-20.0 45.0)
           (-30.0 30.0)
           (-30.0 30.0)
  end
  begin
     id 15 
     name upperneck
     direction -0.0180627 0.994724 -0.100984   
     length 1.35214   
     axis 0 0 0   XYZ
    dof rx ry rz
    limits (-20.0 45.0)
           (-30.0 30.0)
           (-30.0 30.0)
  end
  begin
     id 16
     name head
     direction -0.00374772 0.999293 -0.037403  
     length 1.3568  
     axis 0 0 0   XYZ
    dof rx ry rz
    limits (-20.0 45.0)
           (-30.0 30.0)
           (-30.0 30.0)
  end
  begin
     id 17 
     name lclavicle
     direction 0.971773 0.191119 0.138311  
     length 2.84954  
     axis 0 0 0   XYZ
    dof ry rz
    limits (-20.0 10.0)
           (0.0 20.0)
  end
  begin
     id 18 
     name lhumerus
     direction 1 -4.4897e-011 -2.43761e-027   
     length 4.40919   
     axis 180 -30 -90   XYZ
    dof rx ry rz
    limits (-60.0 90.0)
           (-90.0 90.0)
           (-90.0 90.0)
  end
  begin
     id 19
     name lradius
     direction 1 -4.4896e-011 -9.1621e-027   
     length 3.03857   
     axis 180 -30 -90   XYZ
    dof rx
    limits (-10.0 170.0)
  end
  begin
     id 20
     name lwrist
     direction 1 -4.4896e-011 -1.41363e-026   
     length 1.51928   
     axis 1.07133e-014 90 90   XYZ
    dof ry
    limits (-180.0 0.0)
 end
  begin
     id 21 
     name lhand
     direction 1 -4.48978e-011 -2.82725e-026   
     length 0.523208   
     axis 1.80403e-014 90 90   XYZ
    dof rx rz
    limits (-90.0 90.0)
           (-45.0 45.0)
  end
  begin
     id 22 
     name lfingers
     direction 1 -4.48977e-011 -5.6545e-026   
     length 0.421824   
     axis 3.60806e-014 90 90   XYZ
    dof rx
    limits (0.0 90.0)
  end
  begin
     id 23
     name lthumb
     direction 0.707107 -6.34962e-011 0.707107   
     length 0.605657   
     axis -90 45 2.85299e-015   XYZ
    dof rx rz
    limits (-45.0 45.0)
           (-45.0 45.0)
  end
  begin
     id 24 
     name rclavicle
     direction -0.957247 0.24311 0.156766   
     length 3.12406  
     axis 0 0 0   XYZ 
    dof ry rz
    limits (-10.0 20.0)
           (-20.0 0.0)
  end
  begin
     id 25 
     name rhumerus
     direction -1 -4.48964e-011 -1.70632e-027  
     length 4.61969   
     axis 180 30 90   XYZ
    dof rx ry rz
    limits (-90.0 60.0)
           (-90.0 90.0)
           (-90.0 90.0)
  end
  begin
     id 26 
     name rradius
     direction -1 -4.48966e-011 -6.60395e-027   
     length 3.09382   
     axis 180 30 90   XYZ
    dof rx
    limits (-10.0 170.0)
  end
  begin
     id 27 
     name rwrist
     direction -1 -4.48963e-011 -1.41363e-026   
     length 1.54691   
     axis 1.07133e-014 -90 -90   XYZ
    dof ry
    limits (-180.0 0.0)
  end
  begin
     id 28
     name rhand
     direction -1 -4.49013e-011 -2.82725e-026   
     length 0.500896   
     axis 1.80403e-014 -90 -90   XYZ
    dof rx rz
    limits (-90.0 90.0)
           (-45.0 45.0)
  end
  begin
     id 29
     name rfingers
     direction -1 -4.48902e-011 -5.6545e-026   
     length 0.403835   
     axis 3.60806e-014 -90 -90   XYZ
    dof rx
    limits (0.0 90.0)
  end
  begin
     id 30
     name rthumb
     direction -0.707107 -6.34953e-011 0.707107   
     length 0.579829   
     axis -90 -45 -2.85299e-015   XYZ
    dof rx rz
    limits (-45.0 45.0)
           (-45.0 45.0)
  end
:hierarchy
  begin
    root lhipjoint rhipjoint lowerback
    lhipjoint lfemur
    lfemur ltibia
    ltibia lfoot
    lfoot ltoes
    rhipjoint rfemur
    rfemur rtibia
    rtibia rfoot
    rfoot rtoes
    lowerback upperback
    upperback thorax
    thorax lowerneck lclavicle rclavicle
    lowerneck upperneck
    upperneck head
    lclavicle lhumerus
    lhumerus lradius
    lradius lwrist
    lwrist lhand lthumb
    lhand lfingers
    rclavicle rhumerus
    rhumerus rradius
    rradius rwrist
    rwrist rhand rthumb
    rhand rfingers
  end

#!OML:ASF E:\madness\Project 1\Capture day 1\Session 1\Female1.ASF
:FULLY-SPECIFIED
:DEGREES
68
root 0.24727 16.0104 -1.20398 -142.718 -87.8532 146.38
lowerback -0.794438 -0.614147 -3.44233
upperback -4.60296 -0.947478 0.472344
thorax -4.24397 -0.367667 2.44597
lowerneck 7.711 0.385916 0.597461
upperneck 2.20583 0.407067 -6.09887
head -0.606179 0.231116 -2.03018
rclavicle -3.90115e-015 6.95746e-015
rhumerus -49.1246 -4.22897 -79.6953
rradius 42.1813
rwrist 1.2772
rhand -9.31004 -47.4566
rfingers 7.12502
rthumb 16.648 -76.7626
lclavicle -3.90115e-015 6.95746e-015
lhumerus -53.5427 14.3045 73.0468
lradius 49.6692
lwrist -7.08469
lhand -13.9921 -14.5279
lfingers 7.12502
lthumb 12.1367 15.1001
rfemur -10.6748 14.5917 20.7278
rtibia 27.2706
rfoot -20.7505 -11.6008
rtoes 19.6319
lfemur -8.89034 -17.7369 -17.3193
ltibia 27.8799
lfoot -13.4005 20.4214
ltoes -8.84679
69
root 0.249657 16.0101 -1.21359 -142.357 -87.8678 146.09
lowerback -0.840467 -0.648665 -3.50238
upperback -4.65039 -0.994839 0.496871
thorax -4.26341 -0.388319 2.50616
lowerneck 7.80134 0.453541 0.611821
upperneck 2.24025 0.494424 -6.21469
head -0.607949 0.275378 -2.07368
rclavicle 1.3331e-014 7.95139e-016
rhumerus -49.3083 -4.02374 -79.5513
rradius 42.7167
rwrist 1.20448
rhand -9.42118 -47.0477
rfingers 7.12502
rthumb 16.541 -76.3627
lclavicle 1.3331e-014 7.95139e-016
lhumerus -53.6933 14.1647 72.8083
lradius 50.2354
lwrist -6.92091
lhand -14.0898 -13.4749
lfingers 7.12502
lthumb 12.0425 16.1586
rfemur -10.7271 14.6988 20.752
rtibia 27.2115
rfoot -20.8196 -11.7081
rtoes 19.733
lfemur -9.00662 -17.6886 -17.2696
ltibia 28.0751
lfoot -13.8629 20.3202
ltoes -8.0381
70
root 0.250145 16.0146 -1.22275 -141.892 -87.9139 145.611
lowerback -0.871367 -0.647032 -3.49387
upperback -4.61267 -0.990022 0.482884
thorax -4.20699 -0.387685 2.48584
lowerneck 7.79213 0.447557 0.853123
upperneck 2.37437 0.506654 -6.5364
head -0.564914 0.281804 -2.22223
rclavicle -1.36664e-016 8.05078e-015
rhumerus -49.4092 -3.97938 -79.3703
rradius 43.289
rwrist 1.30417
rhand -9.31296 -46.8474
rfingers 7.12502
rthumb 16.6452 -76.1537
lclavicle -1.36664e-016 8.05078e-015
lhumerus -53.6531 13.916 72.7223
lradius 50.8293
lwrist -6.61834
lhand -13.5779 -10.4535
lfingers 7.12502
lthumb 12.5361 19.1505
rfemur -10.7414 14.8847 20.8167
rtibia 27.2963
rfoot -20.939 -11.8817
rtoes 19.8604
lfemur -9.10665 -17.8024 -17.212
ltibia 28.113
lfoot -14.402 20.2186
ltoes -7.26468
71
root 0.255287 16.0274 -1.23088 -140.398 -88.028 144.172
lowerback -0.792737 -0.60841 -3.3678
upperback -4.7108 -0.94583 0.423953
thorax -4.35937 -0.368703 2.35528
lowerneck 7.82556 0.471123 0.941214
upperneck 2.63514 0.553084 -6.58934
head -0.486334 0.299118 -2.25541
rclavicle 5.71506e-015 3.37934e-015
rhumerus -49.6591 -4.05916 -79.103
rradius 43.785
rwrist 1.31304
rhand -9.72742 -46.5138
rfingers 7.12502
rthumb 16.2461 -75.8532
lclavicle 5.71506e-015 3.37934e-015
lhumerus -53.8007 13.4348 72.7222
lradius 51.7097
lwrist -6.39405
lhand -13.2849 -7.82702
lfingers 7.12502
lthumb 12.8185 21.7594
rfemur -10.8415 14.869 20.8685
rtibia 27.3675
rfoot -20.9015 -12.0218
rtoes 19.4485
lfemur -8.93058 -16.7285 -17.2429
ltibia 28.1896
lfoot -16.5583 19.5195
ltoes -6.11679
72
root 0.263637 16.0064 -1.23598 -137.239 -88.133 141.101
lowerback -0.746404 -0.571379 -3.26256
upperback -4.76798 -0.901682 0.344159
thorax -4.45044 -0.350879 2.21372
lowerneck 7.33022 0.632703 0.395846
upperneck 3.24183 0.761782 -5.86372
head -0.201984 0.371495 -1.91743
rclavicle -1.34801e-015 -1.02374e-014
rhumerus -49.7659 -4.165 -78.8363
rradius 44.2273
rwrist 1.15347
rhand -10.5196 -45.9459
rfingers 7.12502
rthumb 15.4832 -75.3459
lclavicle -1.34801e-015 -1.02374e-014
lhumerus -53.7185 12.9941 72.6909
lradius 52.3444
lwrist -6.38315
lhand -14.4683 -8.37698
lfingers 7.12502
lthumb 11.6776 21.2776
rfemur -11.0569 14.7708 20.8555
rtibia 27.5129
rfoot -20.8696 -12.1039
rtoes 19.1468
lfemur -9.4726 -18.0191 -17.0022
ltibia 28.1753
lfoot -14.2406 20.0132
ltoes -6.2536
73
root 0.270595 16.0054 -1.2451 -134.073 -88.2206 137.937
lowerback -0.861352 -0.559005 -3.246
upperback -4.56212 -0.87218 0.300101
thorax -4.1721 -0.342555 2.15429
lowerneck 7.25386 0.573471 0.52212
upperneck 2.90959 0.685192 -6.02417
head -0.296209 0.344391 -1.99151
rclavicle -4.62174e-015 -2.48481e-016
rhumerus -49.3602 -4.22016 -78.6394
rradius 44.4484
rwrist 0.80829
rhand -10.3791 -46.0059
rfingers 7.12502
rthumb 15.6186 -75.3954
lclavicle -4.62174e-015 -2.48481e-016
lhumerus -53.2462 12.741 72.6969
lradius 52.8624
lwrist -6.36313
lhand -17.5207 -13.1101
lfingers 7.12502
lthumb 8.7329 16.6893
rfemur -11.165 14.7748 20.8791
rtibia 27.6545
rfoot -20.9259 -12.1959
rtoes 19.4667
lfemur -9.55352 -17.9899 -16.943
ltibia 28.1867
lfoot -13.6929 20.1663
ltoes -9.2441
74
root 0.273344 16.002 -1.25618 -131.618 -88.2684 135.391
lowerback -0.887663 -0.557906 -3.3424
upperback -4.37594 -0.8614 0.310681
thorax -3.96232 -0.336891 2.21679
lowerneck 6.74366 0.822102 0.125314
upperneck 3.25838 1.01393 -5.52119
head -0.0910546 0.48794 -1.75949
rclavicle 7.57245e-015 -7.50412e-015
rhumerus -48.97 -4.20774 -78.4076
rradius 44.4689
rwrist 0.482289
rhand -9.44623 -46.6618
rfingers 7.12502
rthumb 16.5169 -75.9788
lclavicle 7.57245e-015 -7.50412e-015
lhumerus -53.0818 12.4887 72.7087
lradius 53.6268
lwrist -6.14594
lhand -17.4645 -13.743
lfingers 7.12502
lthumb 8.78708 16.0541
rfemur -11.1872 14.7934 20.9324
rtibia 27.894
rfoot -21.0375 -12.2926
rtoes 19.4503
lfemur -9.42722 -18.0083 -16.9326
ltibia 28.061
lfoot -13.6681 20.0437
ltoes -9.40259
75
root 0.274018 15.9994 -1.26632 -128.321 -88.3185 132.085
lowerback -0.812715 -0.591413 -3.45326
upperback -4.3839 -0.909499 0.341843
thorax -4.00869 -0.355166 2.31344
lowerneck 7.16446 0.801992 0.607399
upperneck 2.91733 0.999289 -6.07354
head -0.267268 0.501454 -2.02948
rclavicle -6.42944e-015 -1.11319e-014
rhumerus -48.8879 -4.04327 -78.2001
rradius 44.5603
rwrist 0.39391
rhand -9.06227 -47.2096
rfingers 7.12502
rthumb 16.8865 -76.4955
lclavicle -6.42944e-015 -1.11319e-014
lhumerus -53.1283 12.2944 72.6165
lradius 54.2255
lwrist -5.86805
lhand -17.0447 -14.5604
lfingers 7.12502
lthumb 9.19217 15.2192
rfemur -11.2117 14.7184 20.9469
rtibia 27.9903
rfoot -21.0442 -12.3272
rtoes 19.4163
lfemur -9.43664 -18.0632 -16.9261
ltibia 28.079
lfoot -13.625 20.0319
ltoes -9.86203
76
root 0.277219 15.9991 -1.27506 -123.407 -88.3952 127.265
lowerback -0.841871 -0.625281 -3.48219
upperback -4.41842 -0.957037 0.31265
thorax -4.02531 -0.378246 2.30059
lowerneck 7.37443 0.733467 1.08597
upperneck 2.79113 0.933217 -6.56686
head -0.344266 0.481632 -2.27896
rclavicle 3.38555e-015 9.39258e-015
rhumerus -48.8681 -3.94895 -78.0548
rradius 44.6364
rwrist 0.479492
rhand -9.31858 -47.105
rfingers 7.12502
rthumb 16.6398 -76.4118
lclavicle 3.38555e-015 9.39258e-015
lhumerus -53.2285 12.0488 72.4595
lradius 54.9876
lwrist -5.60375
lhand -17.7781 -13.1826
lfingers 7.12502
lthumb 8.48451 16.6269
rfemur -11.345 14.6133 20.9326
rtibia 28.0826
rfoot -21.0796 -12.3205
rtoes 19.7533
lfemur -9.5893 -18.0892 -16.8696
ltibia 28.0943
lfoot -14.1911 19.7551
ltoes -7.85091
77
root 0.280354 15.9992 -1.28357 -119.272 -88.442 123.124
lowerback -0.872157 -0.603873 -3.47109
upperback -4.30628 -0.923413 0.255182
thorax -3.89412 -0.365501 2.23256
lowerneck 7.06496 0.766554 1.27782
upperneck 2.91277 1.00197 -6.76013
head -0.249788 0.511932 -2.37578
rclavicle 4.63106e-015 -1.88845e-015
rhumerus -48.6957 -4.138 -77.8109
rradius 44.7416
rwrist 0.6456
rhand -9.3872 -46.785
rfingers 7.12502
rthumb 16.5737 -76.0972
lclavicle 4.63106e-015 -1.88845e-015
lhumerus -53.0559 11.8299 72.3338
lradius 55.6362
lwrist -5.5315
lhand -18.0673 -12.9955
lfingers 7.12502
lthumb 8.20534 16.8252
rfemur -11.3677 14.5529 20.9547
rtibia 28.177
rfoot -21.1758 -12.3862
rtoes 19.9754
lfemur -9.63938 -18.0889 -16.8455
ltibia 28.1196
lfoot -13.5902 19.9043
ltoes -10.4726
78
root 0.286643 15.9965 -1.28918 -115.089 -88.4552 118.893
lowerback -0.72814 -0.575741 -3.45577
upperback -4.17845 -0.883661 0.255306
thorax -3.84487 -0.346544 2.22389
lowerneck 6.44409 0.892294 1.02432
upperneck 3.22453 1.17455 -6.68691
head -0.0395563 0.578305 -2.3018
rclavicle 7.19352e-015 -3.23025e-015
rhumerus -48.4478 -4.26302 -77.4495
rradius 44.9863
rwrist 0.701341
rhand -9.59722 -46.5418
rfingers 7.12502
rthumb 16.3715 -75.8708
lclavicle 7.19352e-015 -3.23025e-015
lhumerus -52.5876 11.7648 72.3375
lradius 55.871
lwrist -5.62549
lhand -18.0815 -12.9687
lfingers 7.12502
lthumb 8.19167 16.8525
rfemur -11.365 14.4254 20.9498
rtibia 28.2726
rfoot -21.2172 -12.4148
rtoes 20.0831
lfemur -9.67155 -18.0269 -16.8592
ltibia 28.1712
lfoot -13.3692 19.8525
ltoes -11.7973
79
root 0.29468 15.9934 -1.29368 -111.859 -88.466 115.673
lowerback -0.541175 -0.569924 -3.43785
upperback -4.22062 -0.882364 0.291836
thorax -3.99451 -0.342393 2.25452
lowerneck 6.36602 1.02981 0.731292
upperneck 3.38633 1.34389 -6.60763
head 0.0299258 0.652828 -2.22442
rclavicle 1.00324e-014 -1.68967e-015
rhumerus -48.4167 -4.00491 -77.159
rradius 45.1902
rwrist 0.516759
rhand -9.95926 -46.441
rfingers 7.12502
rthumb 16.0229 -75.7984
lclavicle 1.00324e-014 -1.68967e-015
lhumerus -52.5368 11.6968 72.3126
lradius 56.2834
lwrist -5.69653
lhand -18.0751 -12.952
lfingers 7.12502
lthumb 8.19782 16.8689
rfemur -11.4573 14.3086 20.9268
rtibia 28.3615
rfoot -21.204 -12.3937
rtoes 19.9593
lfemur -9.78579 -17.9596 -16.8335
ltibia 28.2444
lfoot -13.2733 19.7438
ltoes -12.5015
80
root 0.300869 15.9925 -1.29864 -110.822 -88.5248 114.74
lowerback -0.461765 -0.551024 -3.34413
upperback -4.3922 -0.865719 0.307693
thorax -4.22047 -0.332805 2.22067
lowerneck 6.70381 1.1289 0.684554
upperneck 3.42092 1.46403 -6.64584
head -0.0114152 0.714832 -2.23394
rclavicle 1.55301e-016 -2.13694e-015
rhumerus -48.7025 -3.79345 -76.8942
rradius 45.5311
rwrist 0.331931
rhand -9.4692 -47.0384
rfingers 7.12502
rthumb 16.4947 -76.3572
lclavicle 1.55301e-016 -2.13694e-015
lhumerus -52.7989 11.6066 72.1341
lradius 56.7877
lwrist -5.63119
lhand -18.3975 -13.6285
lfingers 7.12502
lthumb 7.8867 16.2044
rfemur -11.6645 14.1937 20.9577
rtibia 28.4527
rfoot -21.1752 -12.3504
rtoes 19.7255
lfemur -9.98651 -17.9393 -16.7048
ltibia 28.3118
lfoot -13.0597 19.6958
ltoes -12.0161
81
root 0.305592 15.991 -1.30573 -108.527 -88.5497 112.489
lowerback -0.380911 -0.52613 -3.29602
upperback -4.49059 -0.839908 0.279429
thorax -4.37171 -0.319478 2.16571
lowerneck 6.88624 1.20996 0.790385
upperneck 3.46871 1.57665 -6.72191
head -0.0216152 0.773307 -2.28201
rclavicle 1.30452e-016 4.07509e-015
rhumerus -49.0271 -4.09869 -76.4853
rradius 46.0035
rwrist 0.653732
rhand -8.86994 -47.5979
rfingers 7.12502
rthumb 17.0716 -76.8679
lclavicle 1.30452e-016 4.07509e-015
lhumerus -52.9169 11.5561 71.9045
lradius 57.3048
lwrist -5.31082
lhand -18.9767 -14.6495
lfingers 7.12502
lthumb 7.32761 15.2037
rfemur -11.7852 14.0455 20.9818
rtibia 28.5438
rfoot -21.1247 -12.3468
rtoes 19.6436
lfemur -10.1068 -17.8882 -16.635
ltibia 28.3502
lfoot -12.977 19.5776
ltoes -11.4102
